<svg width="36" height="36" viewBox="0 0 36 36" fill="none" xmlns="http://www.w3.org/2000/svg">
<g clip-path="url(#clip0)">
<path fill-rule="evenodd" clip-rule="evenodd" d="M17.9952 -0.0962677C8.05327 -0.0962677 -0.0086441 8.16951 -0.0086441 18.3663C-0.0086441 26.5235 5.15001 33.4441 12.3035 35.8854C13.2033 36.0563 13.5336 35.4849 13.5336 34.9972C13.5336 34.557 13.5169 33.1026 13.5092 31.5599C8.50048 32.6767 7.44358 29.3815 7.44358 29.3815C6.6246 27.2475 5.44458 26.6801 5.44458 26.6801C3.81109 25.5342 5.5677 25.5577 5.5677 25.5577C7.37561 25.6877 8.32756 27.4606 8.32756 27.4606C9.93332 30.2828 12.5393 29.4668 13.5667 28.9951C13.7283 27.8018 14.1949 26.987 14.7098 26.5263C10.7109 26.0594 6.50713 24.4764 6.50713 17.402C6.50713 15.3863 7.21044 13.7393 8.36214 12.4464C8.17521 11.9811 7.55896 10.1036 8.53655 7.5605C8.53655 7.5605 10.0484 7.06429 13.4889 9.45298C14.925 9.04391 16.4652 8.83876 17.9952 8.83173C19.5253 8.83876 21.0666 9.04391 22.5054 9.45298C25.9418 7.06429 27.4515 7.5605 27.4515 7.5605C28.4315 10.1036 27.815 11.9811 27.628 12.4464C28.7824 13.7393 29.4809 15.3863 29.4809 17.402C29.4809 24.4932 25.2692 26.0546 21.2601 26.5116C21.9059 27.0846 22.4813 28.2081 22.4813 29.9306C22.4813 32.401 22.4604 34.3891 22.4604 34.9972C22.4604 35.4885 22.7845 36.0642 23.6971 35.8829C30.8467 33.4389 35.9988 26.5208 35.9988 18.3663C35.9988 8.16951 27.9381 -0.0962677 17.9952 -0.0962677Z" fill="#73808D"/>
<path d="M6.81033 26.4119C6.77068 26.504 6.62996 26.5312 6.50176 26.4682C6.37118 26.408 6.29783 26.2829 6.34017 26.1909C6.37893 26.0967 6.51995 26.0704 6.65024 26.1331C6.78112 26.1936 6.85565 26.3199 6.81033 26.4119Z" fill="#73808D"/>
<path d="M7.53957 27.246C7.45371 27.3276 7.28586 27.2897 7.17198 27.1607C7.05421 27.032 7.03215 26.8598 7.11921 26.777C7.20775 26.6957 7.37053 26.7339 7.48859 26.8623C7.60636 26.9925 7.62931 27.1634 7.53957 27.246Z" fill="#73808D"/>
<path d="M8.24943 28.3093C8.13912 28.3879 7.95875 28.3142 7.84724 28.15C7.73693 27.9859 7.73694 27.789 7.84963 27.7101C7.96143 27.6312 8.13912 27.7024 8.25212 27.8651C8.36213 28.032 8.36213 28.2289 8.24943 28.3093Z" fill="#73808D"/>
<path d="M9.22196 29.3366C9.12328 29.4482 8.91309 29.4182 8.75925 29.2659C8.60184 29.1171 8.55801 28.9058 8.657 28.7942C8.75687 28.6823 8.96825 28.7138 9.12328 28.8648C9.2795 29.0134 9.32721 29.2262 9.22196 29.3366Z" fill="#73808D"/>
<path d="M10.5636 29.9331C10.5201 30.0777 10.3176 30.1434 10.1137 30.0819C9.91007 30.0187 9.7768 29.8493 9.81795 29.7031C9.86028 29.5576 10.0636 29.4891 10.269 29.5549C10.4724 29.6178 10.6059 29.786 10.5636 29.9331Z" fill="#73808D"/>
<path d="M12.037 30.0437C12.042 30.196 11.8691 30.3222 11.655 30.325C11.4398 30.3299 11.2657 30.2067 11.2633 30.0569C11.2633 29.9031 11.4323 29.778 11.6476 29.7744C11.8616 29.7701 12.037 29.8924 12.037 30.0437Z" fill="#73808D"/>
<path d="M13.4081 29.8044C13.4337 29.9529 13.285 30.1055 13.0724 30.1462C12.8634 30.1853 12.6699 30.0936 12.6434 29.9462C12.6174 29.794 12.7689 29.6414 12.9776 29.602C13.1905 29.5641 13.381 29.6533 13.4081 29.8044Z" fill="#73808D"/>
</g>
<defs>
<clipPath id="clip0">
<rect width="36" height="36" fill="white"/>
</clipPath>
</defs>
</svg>
