<svg width="36" height="36" viewBox="0 0 36 36" fill="none" xmlns="http://www.w3.org/2000/svg">
<g clip-path="url(#clip0)">
<path fill-rule="evenodd" clip-rule="evenodd" d="M1.97927 0.0261904C1.90472 0.0341748 1.84376 0.0558926 1.84376 0.0746294C1.84376 0.0933663 1.80309 0.108697 1.75339 0.108697C1.70369 0.108697 1.66302 0.124985 1.66302 0.144999C1.66302 0.164907 1.63042 0.181195 1.5907 0.181195C1.55088 0.181195 1.51838 0.195674 1.51838 0.213453C1.51838 0.231125 1.46369 0.25593 1.39679 0.268492C1.32999 0.281055 1.2461 0.323638 1.21042 0.363135C1.17484 0.402631 1.13151 0.434889 1.1141 0.434889C1.04539 0.434889 0.433815 1.08749 0.433815 1.16094C0.433815 1.20246 0.417567 1.22642 0.397708 1.21407C0.377744 1.20182 0.361496 1.21013 0.361496 1.2327C0.361496 1.25516 0.337071 1.29806 0.307337 1.32798C0.277496 1.35789 0.253071 1.43007 0.253071 1.48852C0.253071 1.54686 0.236824 1.59466 0.216965 1.59466C0.197001 1.59466 0.180753 1.61914 0.180753 1.64895C0.180753 1.67887 0.164505 1.70335 0.144647 1.70335C0.124682 1.70335 0.108434 1.75094 0.108434 1.80907C0.108434 1.8672 0.088151 1.9216 0.0633014 1.9299C-0.00317647 1.95204 -0.00317647 33.9695 0.0633014 34.0363C0.088151 34.0612 0.108434 34.1191 0.108434 34.1649C0.108434 34.2108 0.124682 34.2483 0.144647 34.2483C0.164505 34.2483 0.180753 34.2809 0.180753 34.3208C0.180753 34.3606 0.197001 34.3933 0.216965 34.3933C0.236824 34.3933 0.253071 34.4426 0.253071 34.5031C0.253071 34.5673 0.275585 34.6216 0.307337 34.6339C0.337071 34.6452 0.361496 34.6873 0.361496 34.7272C0.361496 34.7741 0.379231 34.7928 0.41162 34.7803C0.44677 34.7668 0.456328 34.7818 0.443691 34.8306C0.431372 34.8779 0.464399 34.9348 0.547231 35.0089C0.614027 35.0688 0.685071 35.1351 0.70493 35.156C0.998027 35.466 1.10199 35.554 1.15222 35.5347C1.18334 35.5227 1.19799 35.5239 1.18461 35.5373C1.15105 35.5709 1.24758 35.6617 1.31693 35.6617C1.34815 35.6617 1.37374 35.678 1.37374 35.6979C1.37374 35.7178 1.40635 35.7342 1.44606 35.7342C1.48578 35.7342 1.51838 35.7505 1.51838 35.7704C1.51838 35.7903 1.55088 35.8066 1.5907 35.8066C1.63042 35.8066 1.66302 35.823 1.66302 35.8429C1.66302 35.8628 1.70369 35.8791 1.75339 35.8791C1.80309 35.8791 1.84376 35.8954 1.84376 35.9154C1.84376 35.9353 1.9078 35.9516 1.98617 35.9516C2.06454 35.9516 2.13877 35.9679 2.15098 35.9879C2.18199 36.0382 33.7525 36.0382 33.7835 35.9879C33.7957 35.9679 33.8608 35.9516 33.928 35.9516C33.9954 35.9516 34.0604 35.9353 34.0727 35.9154C34.085 35.8954 34.1347 35.8791 34.1832 35.8791C34.2318 35.8791 34.2715 35.8628 34.2715 35.8429C34.2715 35.823 34.3041 35.8066 34.3438 35.8066C34.3836 35.8066 34.4161 35.7903 34.4161 35.7704C34.4161 35.7505 34.4486 35.7342 34.4884 35.7342C34.5281 35.7342 34.5608 35.7178 34.5608 35.6979C34.5608 35.678 34.5852 35.6617 34.6149 35.6617C34.6448 35.6617 34.6692 35.647 34.6692 35.629C34.6692 35.611 34.7159 35.58 34.7729 35.56C34.83 35.5401 34.9316 35.4654 34.9988 35.3941C35.1423 35.2418 35.2643 35.118 35.3991 34.9883C35.4525 34.9367 35.5076 34.8429 35.5214 34.7798C35.5352 34.7167 35.5769 34.6438 35.614 34.6177C35.6511 34.5917 35.6814 34.5305 35.6814 34.4818C35.6814 34.4331 35.6977 34.3933 35.7175 34.3933C35.7375 34.3933 35.7537 34.3606 35.7537 34.3208C35.7537 34.2809 35.77 34.2483 35.7898 34.2483C35.8098 34.2483 35.8261 34.2084 35.8261 34.1598C35.8261 34.1111 35.8423 34.0613 35.8622 34.049C35.882 34.0366 35.8984 33.947 35.8984 33.8496C35.8984 33.7523 35.9146 33.6626 35.9345 33.6503C35.9878 33.6173 35.9843 2.38395 35.931 2.3304C35.9092 2.30858 35.892 2.20744 35.8928 2.10577C35.8936 2.004 35.8788 1.92085 35.8602 1.92085C35.8414 1.92085 35.8261 1.87188 35.8261 1.81205C35.8261 1.75233 35.8098 1.70335 35.7898 1.70335C35.77 1.70335 35.7537 1.66258 35.7537 1.61276C35.7537 1.56293 35.7375 1.52216 35.7175 1.52216C35.6977 1.52216 35.6814 1.4931 35.6814 1.45765C35.6814 1.42219 35.6495 1.37014 35.6105 1.34192C35.5714 1.31371 35.5296 1.24515 35.5174 1.18969C35.4931 1.07929 34.8852 0.434889 34.8052 0.434889C34.779 0.434889 34.7341 0.402312 34.7055 0.362603C34.6768 0.322787 34.6 0.280203 34.5348 0.26796C34.4695 0.255717 34.4161 0.231125 34.4161 0.213453C34.4161 0.195674 34.3836 0.181195 34.3438 0.181195C34.3041 0.181195 34.2715 0.164907 34.2715 0.144999C34.2715 0.124985 34.2322 0.108697 34.1842 0.108697C34.1361 0.108697 34.09 0.0883627 34.0817 0.0634512C34.0675 0.020548 2.37909 -0.0161805 1.97927 0.0261904ZM8.59721 5.10782C8.60433 5.12901 8.66465 5.14626 8.73144 5.14626C8.79824 5.14626 8.86174 5.16073 8.87258 5.17841C8.88351 5.19597 8.96581 5.22142 9.05544 5.23494C9.14518 5.24846 9.21866 5.27177 9.21866 5.28668C9.21866 5.30169 9.27558 5.33639 9.34514 5.36375C9.4147 5.39111 9.47162 5.42678 9.47162 5.44296C9.47162 5.45925 9.50061 5.47245 9.53597 5.47245C9.57134 5.47245 9.6238 5.50513 9.65247 5.54495C9.68114 5.58487 9.72468 5.61745 9.74921 5.61745C9.81388 5.61745 10.4839 6.29442 10.4839 6.35979C10.4839 6.39002 10.4999 6.41472 10.5193 6.41472C10.5389 6.41472 10.565 6.4555 10.5775 6.50532C10.59 6.55514 10.6147 6.59592 10.6324 6.59592C10.6502 6.59592 10.6647 6.6286 10.6647 6.66842C10.6647 6.70834 10.681 6.74091 10.7008 6.74091C10.7207 6.74091 10.7369 6.7736 10.7369 6.81341C10.7369 6.85323 10.7533 6.88591 10.7731 6.88591C10.793 6.88591 10.8092 6.91849 10.8092 6.95841C10.8092 6.99823 10.8255 7.03091 10.8455 7.03091C10.8653 7.03091 10.8816 7.07168 10.8816 7.12151C10.8816 7.17133 10.8978 7.2121 10.9178 7.2121C10.9376 7.2121 10.9539 7.26917 10.9539 7.3389C10.9539 7.40863 10.9701 7.4658 10.99 7.4658C11.0126 7.4658 11.0262 7.68319 11.0262 8.04558C11.0262 8.40807 11.0126 8.62546 10.99 8.62546C10.9701 8.62546 10.9539 8.68252 10.9539 8.75236C10.9539 8.82209 10.9376 8.87915 10.9178 8.87915C10.8978 8.87915 10.8816 8.92813 10.8816 8.98796C10.8816 9.04768 10.8653 9.09665 10.8455 9.09665C10.8255 9.09665 10.8092 9.12923 10.8092 9.16915C10.8092 9.20897 10.793 9.24165 10.7731 9.24165C10.7533 9.24165 10.7369 9.27423 10.7369 9.31404C10.7369 9.35396 10.7243 9.38654 10.7088 9.38654C10.6667 9.38654 10.5911 9.6084 10.6174 9.65461C10.6299 9.67664 10.6274 9.68314 10.6119 9.66919C10.584 9.64396 10.4839 9.72136 10.4839 9.76809C10.4839 9.7814 10.4351 9.83803 10.3754 9.89393C10.3158 9.94982 10.267 10.0136 10.267 10.0356C10.267 10.087 10.0722 10.2926 10.0234 10.2926C10.0031 10.2926 9.91944 10.3579 9.83746 10.4376C9.75558 10.5172 9.67222 10.5825 9.65236 10.5825C9.6325 10.5825 9.61626 10.5988 9.61626 10.6188C9.61626 10.6387 9.58493 10.655 9.54659 10.655C9.50826 10.655 9.4524 10.6795 9.42256 10.7094C9.39282 10.7393 9.33473 10.7637 9.29353 10.7637C9.25233 10.7637 9.21866 10.7801 9.21866 10.8C9.21866 10.8199 9.18606 10.8362 9.14635 10.8362C9.10652 10.8362 9.07403 10.8525 9.07403 10.8725C9.07403 10.8924 9.02518 10.9087 8.9656 10.9087C8.90072 10.9087 8.85707 10.9276 8.85707 10.9558C8.85707 10.9882 8.81778 10.9982 8.73059 10.9881C8.65307 10.979 8.60401 10.9889 8.60401 11.0135C8.60401 11.0388 8.51704 11.0537 8.36911 11.0537C8.23647 11.0537 8.1341 11.0695 8.1341 11.0899C8.1341 11.1098 8.069 11.1262 7.98946 11.1262C7.90992 11.1262 7.84482 11.1098 7.84482 11.0899C7.84482 11.0695 7.74245 11.0537 7.60992 11.0537C7.47728 11.0537 7.37491 11.0378 7.37491 11.0174C7.37491 10.9975 7.33424 10.9812 7.28454 10.9812C7.23484 10.9812 7.19417 10.9649 7.19417 10.945C7.19417 10.925 7.14532 10.9087 7.08564 10.9087C7.02606 10.9087 6.97721 10.8924 6.97721 10.8725C6.97721 10.8525 6.93654 10.8362 6.88684 10.8362C6.83714 10.8362 6.79647 10.8199 6.79647 10.8C6.79647 10.7801 6.77088 10.7637 6.73966 10.7637C6.70843 10.7637 6.65714 10.738 6.62581 10.7065C6.59449 10.6751 6.53863 10.6572 6.50178 10.6669C6.46504 10.6766 6.44401 10.6696 6.45527 10.6514C6.46652 10.6332 6.44624 10.6071 6.41013 10.5936C6.37403 10.58 6.3015 10.523 6.24872 10.467C6.19604 10.4109 6.13562 10.3651 6.11459 10.3651C6.06192 10.3651 5.7119 10.0156 5.7119 9.96291C5.7119 9.93949 5.67123 9.88264 5.62153 9.83644C5.57183 9.79024 5.53116 9.72721 5.53116 9.69634C5.53116 9.66546 5.51491 9.64023 5.49505 9.64023C5.47509 9.64023 5.45884 9.61884 5.45884 9.59275C5.45884 9.56656 5.42635 9.51014 5.38652 9.46734C5.34681 9.42465 5.31431 9.37259 5.31431 9.35183C5.31431 9.33107 5.29796 9.31404 5.2781 9.31404C5.25824 9.31404 5.24199 9.26518 5.24199 9.20535C5.24199 9.14552 5.22691 9.09665 5.20843 9.09665C5.18996 9.09665 5.16373 9.00691 5.15003 8.89725C5.13633 8.7877 5.11073 8.69796 5.09321 8.69796C5.07558 8.69796 5.06125 8.58479 5.06125 8.4464C5.06125 8.3081 5.04489 8.18482 5.02504 8.17247C5.00518 8.16013 4.98893 8.10211 4.98893 8.04345C4.98893 7.98489 5.00518 7.93688 5.02504 7.93688C5.04543 7.93688 5.06125 7.83489 5.06125 7.70352C5.06125 7.57513 5.07516 7.46133 5.09226 7.45079C5.10946 7.44014 5.13399 7.35423 5.14684 7.2598C5.17222 7.07445 5.24284 6.88591 5.28691 6.88591C5.30199 6.88591 5.31431 6.85323 5.31431 6.81341C5.31431 6.7736 5.33056 6.74091 5.35042 6.74091C5.37028 6.74091 5.38652 6.70834 5.38652 6.66842C5.38652 6.6286 5.40458 6.59592 5.42656 6.59592C5.44865 6.59592 5.45725 6.57154 5.44578 6.54162C5.43367 6.5099 5.44525 6.48722 5.47371 6.48722C5.50047 6.48722 5.54348 6.43623 5.56928 6.37384C5.59509 6.31146 5.65392 6.22246 5.70022 6.17615C5.74642 6.12984 5.78422 6.08246 5.78422 6.07086C5.78422 6.0435 6.02847 5.79864 6.05576 5.79864C6.06734 5.79864 6.11735 5.75787 6.16716 5.70804C6.21686 5.65822 6.27866 5.61745 6.30447 5.61745C6.33028 5.61745 6.38093 5.58487 6.41693 5.54495C6.45282 5.50513 6.50422 5.47245 6.53098 5.47245C6.55764 5.47245 6.57951 5.45616 6.57951 5.43625C6.57951 5.41634 6.61212 5.39995 6.65183 5.39995C6.69166 5.39995 6.72415 5.38749 6.72415 5.37227C6.72415 5.33501 6.99633 5.21876 7.08383 5.21876C7.12227 5.21876 7.1638 5.20247 7.17601 5.18256C7.18833 5.16265 7.25438 5.14626 7.32277 5.14626C7.39127 5.14626 7.44723 5.1305 7.44723 5.11112C7.44723 5.04491 8.57523 5.04161 8.59721 5.10782ZM24.8722 13.1591C24.8722 13.1771 25.0185 13.1919 25.1976 13.1919C25.3903 13.1919 25.5228 13.2067 25.5228 13.2281C25.5228 13.2481 25.6114 13.2644 25.7196 13.2644C25.8277 13.2644 25.9253 13.279 25.9363 13.2969C25.9473 13.3147 26.0865 13.3409 26.2457 13.355C26.4049 13.3691 26.5351 13.3953 26.5351 13.4132C26.5351 13.431 26.5758 13.4456 26.6255 13.4456C26.6752 13.4456 26.7158 13.4619 26.7158 13.4818C26.7158 13.5018 26.7647 13.5181 26.8244 13.5181C26.8839 13.5181 26.9328 13.5344 26.9328 13.5543C26.9328 13.5742 26.9735 13.5906 27.0232 13.5906C27.0729 13.5906 27.1135 13.6088 27.1135 13.6311C27.1135 13.6543 27.1507 13.6644 27.2006 13.6548C27.2668 13.6422 27.2827 13.6512 27.267 13.6922C27.2509 13.734 27.2677 13.7421 27.3408 13.7282C27.3947 13.7178 27.4322 13.7259 27.4281 13.747C27.4242 13.7674 27.4737 13.7998 27.5383 13.8193C27.603 13.8388 27.6559 13.8687 27.6559 13.8857C27.6559 13.9028 27.6848 13.9167 27.7201 13.9167C27.7555 13.9167 27.8079 13.9494 27.8366 13.9892C27.8653 14.0291 27.9137 14.0617 27.9443 14.0617C27.9749 14.0617 28.0202 14.0943 28.0451 14.1342C28.0699 14.174 28.1075 14.2067 28.1286 14.2067C28.1498 14.2067 28.1898 14.227 28.2175 14.252C28.3253 14.3489 28.3766 14.3879 28.3964 14.3879C28.4076 14.3879 28.488 14.4572 28.5749 14.542C28.6617 14.6266 28.7649 14.7204 28.8039 14.7503C28.843 14.7802 28.9041 14.8618 28.9396 14.9315C29.0049 15.0599 29.1236 15.1852 29.1797 15.1852C29.1965 15.1852 29.2103 15.2118 29.2103 15.2444C29.2103 15.2769 29.2407 15.33 29.2778 15.3622C29.3148 15.3945 29.3561 15.4707 29.3695 15.5316C29.3828 15.5925 29.4257 15.6653 29.4647 15.6935C29.5038 15.7217 29.5357 15.7739 29.5357 15.8094C29.5357 15.8448 29.552 15.8738 29.5718 15.8738C29.5917 15.8738 29.608 15.9064 29.608 15.9463C29.608 15.9862 29.6243 16.0188 29.6441 16.0188C29.664 16.0188 29.6803 16.0432 29.6803 16.0732C29.6803 16.1031 29.6966 16.1275 29.7165 16.1275C29.7363 16.1275 29.7527 16.1724 29.7528 16.2272C29.7529 16.2819 29.7773 16.3735 29.8071 16.4307C29.8368 16.4877 29.861 16.5652 29.861 16.6028C29.861 16.6404 29.8774 16.6711 29.8972 16.6711C29.9171 16.6711 29.9333 16.72 29.9333 16.7798C29.9333 16.8397 29.9497 16.8885 29.9695 16.8885C29.9894 16.8885 30.0056 16.9293 30.0056 16.9791C30.0056 17.029 30.0219 17.0697 30.0419 17.0697C30.0617 17.0697 30.078 17.1259 30.078 17.1945C30.078 17.2631 30.0942 17.3293 30.1141 17.3416C30.134 17.3539 30.1503 17.4201 30.1503 17.4886C30.1503 17.5573 30.1654 17.6134 30.1837 17.6134C30.2021 17.6134 30.2286 17.7605 30.2427 17.9404C30.2567 18.1202 30.2823 18.2761 30.2996 18.2868C30.3169 18.2975 30.331 18.4022 30.331 18.5194C30.331 18.6367 30.3473 18.7426 30.3671 18.755C30.3871 18.7673 30.4033 18.9232 30.4033 19.1014C30.4033 19.2933 30.4181 19.4255 30.4394 19.4255C30.4625 19.4255 30.4757 19.7275 30.4757 20.259C30.4757 20.7906 30.4887 21.0926 30.5118 21.0926C30.5353 21.0926 30.548 21.6785 30.548 22.7778C30.548 23.8772 30.5353 24.463 30.5118 24.463C30.488 24.463 30.4757 25.508 30.4757 27.5254V30.5879H27.8916H25.3077L25.2938 25.5412C25.2776 19.6786 25.2832 20.1865 25.2354 20.1865C25.214 20.1865 25.1976 20.1073 25.1976 20.0053C25.1976 19.9057 25.1812 19.8242 25.1614 19.8242C25.1415 19.8242 25.1252 19.7671 25.1252 19.6973C25.1252 19.6275 25.109 19.5705 25.089 19.5705C25.0692 19.5705 25.0529 19.5215 25.0529 19.4618C25.0529 19.4019 25.0367 19.353 25.0167 19.353C24.9969 19.353 24.9806 19.3122 24.9806 19.2624C24.9806 19.2125 24.9644 19.1718 24.9445 19.1718C24.9245 19.1718 24.9083 19.1392 24.9083 19.0993C24.9083 19.0595 24.8939 19.0268 24.8762 19.0268C24.8585 19.0268 24.8341 18.9733 24.8217 18.9079C24.8095 18.8424 24.7671 18.7654 24.7274 18.7368C24.6877 18.7081 24.6552 18.6621 24.6552 18.6347C24.6552 18.6072 24.6023 18.5375 24.5378 18.4797C24.4731 18.422 24.404 18.3576 24.3841 18.3367C24.1991 18.1424 24.1314 18.0845 24.0895 18.0845C24.0627 18.0845 24.0407 18.072 24.0407 18.0568C24.0407 18.0232 23.7723 17.9033 23.697 17.9033C23.6673 17.9033 23.643 17.887 23.643 17.8671C23.643 17.8472 23.5942 17.8308 23.5346 17.8308C23.4749 17.8308 23.4261 17.8145 23.4261 17.7946C23.4261 17.7747 23.3529 17.7584 23.2634 17.7584C23.1739 17.7584 23.1008 17.742 23.1008 17.7221C23.1008 17.6994 22.8725 17.6859 22.4883 17.6859C22.119 17.6859 21.867 17.7003 21.8535 17.7221C21.8413 17.742 21.759 17.7584 21.6706 17.7584C21.5824 17.7584 21.5101 17.7747 21.5101 17.7946C21.5101 17.8145 21.4531 17.8308 21.3836 17.8308C21.3139 17.8308 21.257 17.8472 21.257 17.8671C21.257 17.887 21.2174 17.9033 21.169 17.9033C21.0471 17.9033 20.8869 17.9688 20.9114 18.0086C20.9226 18.0267 20.8992 18.033 20.8594 18.0225C20.8189 18.012 20.7871 18.0215 20.7871 18.044C20.7871 18.0663 20.7651 18.0845 20.7382 18.0845C20.7113 18.0845 20.6382 18.1335 20.5759 18.1933C20.5134 18.253 20.4534 18.302 20.4424 18.302C20.3821 18.302 20.0279 18.6618 20.0279 18.7232C20.0279 18.7506 20.0127 18.7731 19.9941 18.7731C19.9757 18.7731 19.9489 18.8098 19.9348 18.8546C19.9206 18.8996 19.8789 18.9626 19.842 18.9948C19.805 19.0271 19.7748 19.0801 19.7748 19.1126C19.7748 19.1452 19.7586 19.1718 19.7386 19.1718C19.7188 19.1718 19.7025 19.2125 19.7025 19.2624C19.7025 19.3122 19.6863 19.353 19.6663 19.353C19.6465 19.353 19.6302 19.3856 19.6302 19.4255C19.6302 19.4654 19.6152 19.498 19.597 19.498C19.5786 19.498 19.5524 19.604 19.5385 19.7336C19.5246 19.8631 19.4989 19.969 19.4814 19.969C19.4638 19.969 19.4495 20.0262 19.4495 20.0959C19.4495 20.1657 19.4332 20.2227 19.4134 20.2227C19.3932 20.2227 19.3771 20.3194 19.3771 20.4402C19.3771 20.5611 19.3611 20.6577 19.341 20.6577C19.3193 20.6577 19.3048 20.8026 19.3048 21.0201C19.3048 21.2375 19.2904 21.3825 19.2687 21.3825C19.2448 21.3825 19.2325 22.9409 19.2325 25.9852V30.5879H16.6658H14.0991V22.0892V13.5906H16.5754H19.0518V14.7322V15.8738H19.1783C19.2807 15.8738 19.3048 15.86 19.3048 15.8014C19.3048 15.7614 19.3185 15.7289 19.3353 15.7289C19.3521 15.7289 19.3965 15.6718 19.434 15.602C19.4713 15.5322 19.5147 15.4752 19.53 15.4752C19.5454 15.4752 19.5579 15.4494 19.5579 15.4179C19.5579 15.3865 19.623 15.298 19.7025 15.2215C19.7821 15.1448 19.8472 15.065 19.8472 15.044C19.8472 14.9971 20.323 14.5329 20.3712 14.5329C20.3826 14.5329 20.4488 14.4757 20.5183 14.406C20.588 14.3363 20.6582 14.2792 20.6744 14.2792C20.6907 14.2792 20.7551 14.2302 20.8176 14.1704C20.8799 14.1107 20.952 14.0617 20.9776 14.0617C21.0032 14.0617 21.0476 14.0291 21.0763 13.9892C21.1049 13.9494 21.1492 13.9167 21.1746 13.9167C21.2001 13.9167 21.2209 13.9004 21.2209 13.8805C21.2209 13.8606 21.2447 13.8443 21.2739 13.8443C21.3392 13.8443 21.596 13.7275 21.6125 13.6903C21.6191 13.6753 21.6558 13.663 21.6939 13.663C21.732 13.663 21.7631 13.6467 21.7631 13.6268C21.7631 13.6069 21.7957 13.5906 21.8354 13.5906C21.8752 13.5906 21.9078 13.5742 21.9078 13.5543C21.9078 13.5344 21.9484 13.5181 21.9981 13.5181C22.0478 13.5181 22.0885 13.5018 22.0885 13.4818C22.0885 13.4619 22.121 13.4456 22.1608 13.4456C22.2005 13.4456 22.2331 13.4317 22.2331 13.4145C22.2331 13.3974 22.3348 13.3728 22.459 13.3598C22.5834 13.3468 22.6904 13.32 22.697 13.3003C22.7037 13.2805 22.7796 13.2644 22.8657 13.2644C22.9519 13.2644 23.0284 13.2463 23.0358 13.2242C23.0438 13.1999 23.1387 13.1852 23.2737 13.187C23.3974 13.1889 23.4985 13.1748 23.4985 13.1558C23.4985 13.1363 23.7177 13.1171 24.0088 13.1113C24.6102 13.0995 24.8722 13.114 24.8722 13.1591ZM10.5924 22.0892V30.5879H8.02557H5.45884V22.0892V13.5906H8.02557H10.5924V22.0892ZM39.4411 31.2764C39.4411 31.2963 39.3842 31.3127 39.3147 31.3127C39.245 31.3127 39.1881 31.329 39.1881 31.3489C39.1881 31.3688 39.1393 31.3852 39.0797 31.3852C39.02 31.3852 38.9712 31.4015 38.9712 31.4214C38.9712 31.4413 38.9386 31.4576 38.8989 31.4576C38.8591 31.4576 38.8265 31.4699 38.8265 31.4849C38.8264 31.4998 38.7532 31.5422 38.6638 31.579C38.5744 31.6159 38.5012 31.6608 38.5012 31.6787C38.5012 31.6966 38.4799 31.7113 38.4538 31.7113C38.4278 31.7113 38.3391 31.7806 38.2566 31.8654C38.1742 31.9501 38.0736 32.0508 38.0329 32.0891C37.9922 32.1276 37.959 32.1806 37.959 32.207C37.959 32.2334 37.9438 32.255 37.9252 32.255C37.9067 32.255 37.8803 32.2905 37.8666 32.3338C37.8529 32.377 37.8112 32.4454 37.7738 32.4855C37.7364 32.5257 37.7059 32.5963 37.7059 32.6423C37.7059 32.6884 37.6897 32.7261 37.6697 32.7261C37.6498 32.7261 37.6336 32.7588 37.6336 32.7986C37.6336 32.8385 37.6154 32.8711 37.5932 32.8711C37.5709 32.8711 37.5612 32.9029 37.5714 32.9422C37.5817 32.9814 37.5672 33.0323 37.5395 33.0554C37.5095 33.0804 37.489 33.166 37.489 33.2669C37.489 33.3602 37.4713 33.4542 37.4497 33.4758C37.3918 33.5339 37.4657 34.3933 37.5287 34.3933C37.5466 34.3933 37.5613 34.4503 37.5613 34.52C37.5613 34.5899 37.5775 34.6469 37.5975 34.6469C37.6174 34.6469 37.6336 34.6795 37.6336 34.7194C37.6336 34.7593 37.6498 34.7919 37.6697 34.7919C37.6897 34.7919 37.7059 34.8245 37.7059 34.8643C37.7059 34.9043 37.7222 34.9368 37.742 34.9368C37.7619 34.9368 37.7782 34.9695 37.7782 35.0093C37.7782 35.0493 37.7945 35.0818 37.8143 35.0818C37.8342 35.0818 37.8506 35.1056 37.8506 35.1345C37.8506 35.1635 37.8912 35.228 37.9409 35.2778C37.9906 35.3276 38.0313 35.3815 38.0313 35.3976C38.0313 35.4293 38.2741 35.6617 38.3072 35.6617C38.3185 35.6617 38.3732 35.7106 38.4289 35.7704C38.4846 35.8302 38.5562 35.8791 38.5881 35.8791C38.6198 35.8791 38.6459 35.8919 38.6459 35.9075C38.6459 35.9568 38.8518 36.0603 38.9497 36.0603C39.0013 36.0603 39.0435 36.0767 39.0435 36.0966C39.0435 36.1165 39.0828 36.1328 39.1308 36.1328C39.1789 36.1328 39.225 36.1532 39.2333 36.1782C39.2447 36.2123 39.4238 36.2234 39.9653 36.2234C40.5068 36.2234 40.6861 36.2123 40.6974 36.1782C40.7057 36.1532 40.76 36.1328 40.818 36.1328C40.8759 36.1328 40.9234 36.1173 40.9234 36.0982C40.9234 36.0793 40.9803 36.053 41.0499 36.0399C41.1195 36.0268 41.1765 36.0015 41.1765 35.9839C41.1765 35.9661 41.209 35.9516 41.2488 35.9516C41.2885 35.9516 41.321 35.9353 41.321 35.9154C41.321 35.8954 41.3386 35.8791 41.36 35.8791C41.3814 35.8791 41.4587 35.817 41.5318 35.7412C41.6048 35.6653 41.6933 35.5923 41.7286 35.579C41.7638 35.5656 41.8034 35.5257 41.8167 35.4903C41.83 35.4551 41.8865 35.3829 41.9425 35.33C41.9983 35.2772 42.0441 35.2118 42.0441 35.1847C42.0441 35.1576 42.0766 35.1152 42.1164 35.0902C42.1561 35.0653 42.1887 35.0206 42.1887 34.9909C42.1887 34.9612 42.2069 34.9368 42.2291 34.9368C42.2524 34.9368 42.2622 34.8993 42.2523 34.8473C42.243 34.7981 42.2491 34.7665 42.2662 34.777C42.2832 34.7876 42.2971 34.7545 42.2971 34.7035C42.2971 34.6524 42.3134 34.6106 42.3332 34.6106C42.3532 34.6106 42.3695 34.5632 42.3695 34.5049C42.3695 34.4468 42.3879 34.393 42.4106 34.3855C42.4392 34.3759 42.4518 34.1851 42.4518 33.759C42.4518 33.3329 42.4392 33.142 42.4106 33.1325C42.3879 33.1249 42.3695 33.063 42.3695 32.9949C42.3695 32.9268 42.3546 32.8711 42.3364 32.8711C42.3183 32.8711 42.2925 32.8058 42.2791 32.7261C42.2656 32.6464 42.2437 32.5812 42.2305 32.5812C42.2172 32.5812 42.1832 32.5282 42.1551 32.4634C42.1268 32.3986 42.074 32.3192 42.0378 32.2869C42.0015 32.2547 41.9718 32.212 41.9718 32.192C41.9718 32.143 41.6225 31.7838 41.5749 31.7838C41.5542 31.7838 41.4851 31.7338 41.4211 31.6726C41.3573 31.6115 41.2598 31.5523 41.2046 31.5412C41.1494 31.5301 41.1042 31.5068 41.1042 31.4894C41.1042 31.4719 41.0715 31.4576 41.0318 31.4576C40.9921 31.4576 40.9595 31.4413 40.9595 31.4214C40.9595 31.4015 40.9188 31.3852 40.8691 31.3852C40.8194 31.3852 40.7788 31.3688 40.7788 31.3489C40.7788 31.329 40.7137 31.3127 40.6341 31.3127C40.5546 31.3127 40.4896 31.2963 40.4896 31.2764C40.4896 31.254 40.2907 31.2402 39.9653 31.2402C39.64 31.2402 39.4411 31.254 39.4411 31.2764ZM40.3088 31.6751C40.3088 31.695 40.3658 31.7113 40.4353 31.7113C40.5049 31.7113 40.5618 31.7277 40.5618 31.7476C40.5618 31.7675 40.6107 31.7838 40.6703 31.7838C40.7299 31.7838 40.7788 31.8001 40.7788 31.8201C40.7788 31.84 40.8113 31.8563 40.8511 31.8563C40.8908 31.8563 40.9234 31.8726 40.9234 31.8925C40.9234 31.9125 40.9471 31.9288 40.976 31.9288C41.0049 31.9288 41.0692 31.9696 41.1189 32.0194C41.1686 32.0692 41.2308 32.11 41.2572 32.11C41.2835 32.11 41.3279 32.1417 41.3558 32.1806C41.3837 32.2193 41.4202 32.2426 41.437 32.2322C41.4537 32.2218 41.463 32.235 41.4575 32.2614C41.452 32.2877 41.4691 32.3048 41.4955 32.2994C41.5218 32.2939 41.5334 32.3056 41.5212 32.3254C41.509 32.3452 41.5321 32.3821 41.5727 32.4075C41.6133 32.4329 41.6464 32.4787 41.6464 32.5093C41.6464 32.5401 41.679 32.5887 41.7187 32.6174C41.7585 32.6461 41.791 32.6986 41.791 32.7341C41.791 32.7696 41.8065 32.7986 41.8255 32.7986C41.8445 32.7986 41.8708 32.8557 41.8837 32.9255C41.8968 32.9952 41.922 33.0523 41.9397 33.0523C41.9573 33.0523 41.9718 33.1094 41.9718 33.1792C41.9718 33.2489 41.988 33.306 42.0079 33.306C42.0301 33.306 42.0441 33.4811 42.0441 33.759C42.0441 34.0368 42.0301 34.2121 42.0079 34.2121C41.988 34.2121 41.9718 34.2519 41.9718 34.3005C41.9718 34.3492 41.9576 34.3977 41.9403 34.4084C41.9231 34.4191 41.8985 34.4934 41.8857 34.5736C41.8729 34.6538 41.8491 34.7194 41.8329 34.7194C41.8165 34.7194 41.7803 34.7643 41.7522 34.8191C41.7241 34.8739 41.6725 34.9451 41.6376 34.9774C41.6026 35.0095 41.5741 35.0717 41.5741 35.1154C41.5741 35.1591 41.5591 35.1855 41.5408 35.1742C41.5226 35.1628 41.4755 35.1946 41.4362 35.2446C41.3969 35.2945 41.3452 35.3355 41.3213 35.3355C41.2973 35.3355 41.2321 35.3844 41.1765 35.4442C41.1207 35.5041 41.0491 35.5529 41.0173 35.5529C40.9855 35.5529 40.9595 35.5686 40.9595 35.5875C40.9595 35.6066 40.9038 35.6327 40.8355 35.6455C40.7673 35.6583 40.7032 35.6904 40.6931 35.7168C40.6823 35.7451 40.6441 35.7568 40.6003 35.7453C40.5578 35.7341 40.5257 35.7432 40.5257 35.7662C40.5257 35.7906 40.4539 35.8066 40.345 35.8066C40.2456 35.8066 40.1642 35.823 40.1642 35.8429C40.1642 35.8628 40.0747 35.8791 39.9653 35.8791C39.8518 35.8791 39.7665 35.8629 39.7665 35.8414C39.7665 35.8199 39.7016 35.8076 39.6154 35.8127C39.5225 35.8181 39.4587 35.8048 39.4496 35.7779C39.4417 35.7538 39.3877 35.7342 39.3297 35.7342C39.2718 35.7342 39.2243 35.7186 39.2243 35.6996C39.2243 35.6806 39.1674 35.6543 39.0977 35.6412C39.0282 35.6281 38.9712 35.6028 38.9712 35.5852C38.9712 35.5675 38.9452 35.5529 38.9134 35.5529C38.8816 35.5529 38.8084 35.5023 38.7507 35.4404C38.6898 35.375 38.6239 35.3363 38.5934 35.3479C38.5565 35.3621 38.5477 35.3506 38.5636 35.3092C38.5802 35.2658 38.5708 35.2563 38.5274 35.273C38.4874 35.2884 38.4748 35.28 38.4876 35.2463C38.4986 35.2178 38.475 35.1871 38.4315 35.1733C38.3903 35.1602 38.3566 35.1215 38.3566 35.0874C38.3566 35.0533 38.3255 35.0028 38.2874 34.9753C38.2493 34.9478 38.189 34.8545 38.1534 34.768C38.1179 34.6814 38.0758 34.6106 38.06 34.6106C38.0442 34.6106 38.0313 34.5708 38.0313 34.5222C38.0313 34.4735 38.0149 34.4237 37.9951 34.4114C37.9752 34.399 37.959 34.3492 37.959 34.3005C37.959 34.2519 37.9427 34.2121 37.9228 34.2121C37.9006 34.2121 37.8867 34.0309 37.8867 33.7409C37.8867 33.451 37.9006 33.2698 37.9228 33.2698C37.9427 33.2698 37.959 33.2208 37.959 33.161C37.959 33.1013 37.9752 33.0523 37.9951 33.0523C38.0149 33.0523 38.0313 33.0197 38.0313 32.9798C38.0313 32.94 38.0442 32.9073 38.06 32.9073C38.0758 32.9073 38.1189 32.8339 38.1559 32.7442C38.1927 32.6546 38.2367 32.5812 38.2537 32.5812C38.2706 32.5812 38.2844 32.5485 38.2844 32.5087C38.2844 32.4688 38.3002 32.4362 38.3195 32.4362C38.3654 32.4362 38.682 32.1187 38.682 32.0729C38.682 32.0534 38.7146 32.0375 38.7543 32.0375C38.7941 32.0375 38.8266 32.0237 38.8266 32.0067C38.8266 31.9898 38.8998 31.9457 38.9893 31.9087C39.0787 31.8718 39.152 31.8285 39.152 31.8127C39.152 31.7968 39.2007 31.7838 39.2604 31.7838C39.3201 31.7838 39.3688 31.7675 39.3688 31.7476C39.3688 31.7277 39.4258 31.7113 39.4954 31.7113C39.565 31.7113 39.6219 31.695 39.6219 31.6751C39.6219 31.6535 39.7605 31.6388 39.9653 31.6388C40.1703 31.6388 40.3088 31.6535 40.3088 31.6751ZM39.0435 33.7565V35.118H39.2785H39.5135V34.5564V33.9946H39.7123C39.8522 33.9946 39.9112 34.0086 39.9112 34.0421C39.9112 34.0682 39.9416 34.1225 39.979 34.1627C40.0164 34.2029 40.0581 34.2711 40.0718 34.3145C40.0855 34.3578 40.112 34.3933 40.1305 34.3933C40.149 34.3933 40.1642 34.4258 40.1642 34.4658C40.1642 34.5056 40.1805 34.5382 40.2003 34.5382C40.2202 34.5382 40.2365 34.5591 40.2365 34.5846C40.2365 34.6101 40.269 34.6544 40.3088 34.6831C40.3486 34.7119 40.3811 34.7584 40.3811 34.7866C40.3811 34.8147 40.4175 34.8694 40.462 34.9081C40.5065 34.9467 40.543 35.0057 40.5433 35.0391C40.5438 35.0902 40.5883 35.1008 40.824 35.1055C41.0972 35.1109 41.1042 35.109 41.1042 35.0239C41.1042 34.976 41.0919 34.9366 41.0771 34.9364C41.0621 34.9362 41.0191 34.8715 40.9814 34.7927C40.9437 34.7138 40.8868 34.6202 40.8549 34.5847C40.8229 34.5491 40.7738 34.4752 40.7455 34.4204C40.7173 34.3656 40.6808 34.3208 40.6642 34.3208C40.6477 34.3208 40.6341 34.2999 40.6341 34.2743C40.6341 34.2489 40.6016 34.2045 40.5618 34.1758C40.5221 34.147 40.4896 34.0978 40.4896 34.0663C40.4896 34.0348 40.4701 33.9895 40.4462 33.9656C40.4124 33.9318 40.433 33.9221 40.5386 33.9221C40.6525 33.9221 40.7033 33.8936 40.8531 33.7458L41.0318 33.5694V33.184C41.0318 32.9513 41.0175 32.7986 40.9957 32.7986C40.9758 32.7986 40.9595 32.7688 40.9595 32.7325C40.9595 32.6615 40.8181 32.5087 40.7523 32.5087C40.7305 32.5087 40.7057 32.4883 40.6974 32.4634C40.6862 32.4294 40.478 32.4152 39.8629 32.4065L39.0435 32.395V33.7565ZM40.4377 32.9245C40.7566 33.2441 40.5028 33.5235 39.8935 33.5235H39.5135V33.156V32.7885L39.9259 32.8068C40.3162 32.824 40.3438 32.8303 40.4377 32.9245Z" fill="#73808D"/>
</g>
<defs>
<clipPath id="clip0">
<rect width="36" height="36" fill="white"/>
</clipPath>
</defs>
</svg>
