<svg width="479" height="80" viewBox="0 0 479 80" fill="none" xmlns="http://www.w3.org/2000/svg">
<path fill-rule="evenodd" clip-rule="evenodd" d="M31 4.60158e-06V8H8V72H31V80H0V0L31 4.60158e-06ZM448 4.60158e-06V8H471V72H448V80H479V0L448 4.60158e-06ZM27.248 17.328V62H35.696V44.976H47.344C49.392 44.976 51.2267 44.656 52.848 44.016C54.512 43.3333 55.92 42.3947 57.072 41.2C58.224 39.9627 59.0987 38.512 59.696 36.848C60.2933 35.1413 60.592 33.2427 60.592 31.152C60.592 29.104 60.2933 27.2267 59.696 25.52C59.0987 23.8133 58.224 22.3627 57.072 21.168C55.92 19.9307 54.512 18.992 52.848 18.352C51.2267 17.6693 49.392 17.328 47.344 17.328H27.248ZM46.576 37.68H35.696V24.688H46.576C48.1973 24.688 49.4773 25.1147 50.416 25.968C51.3547 26.8213 51.824 28.0587 51.824 29.68V32.624C51.824 34.2453 51.3547 35.504 50.416 36.4C49.4773 37.2533 48.1973 37.68 46.576 37.68ZM75.928 14.64H67.736V62H75.928V39.92C75.928 39.024 76.12 38.256 76.504 37.616C76.888 36.9333 77.3787 36.3787 77.976 35.952C78.616 35.4827 79.32 35.1413 80.088 34.928C80.8987 34.672 81.7307 34.544 82.584 34.544C84.5467 34.544 85.9547 35.1413 86.808 36.336C87.6613 37.5307 88.088 39.3227 88.088 41.712V62H96.28V40.88C96.28 36.6987 95.3627 33.4773 93.528 31.216C91.6933 28.9547 89.048 27.824 85.592 27.824C82.9893 27.824 80.9413 28.4427 79.448 29.68C77.9973 30.8747 76.9307 32.368 76.248 34.16H75.928V14.64ZM105.745 22.576C106.513 23.344 107.75 23.728 109.457 23.728C111.121 23.728 112.337 23.344 113.105 22.576C113.873 21.808 114.257 20.8267 114.257 19.632V18.352C114.257 17.1573 113.873 16.176 113.105 15.408C112.337 14.64 111.121 14.256 109.457 14.256C107.75 14.256 106.513 14.64 105.745 15.408C105.02 16.176 104.657 17.1573 104.657 18.352V19.632C104.657 20.8267 105.02 21.808 105.745 22.576ZM113.553 62V28.592H105.361V62H113.553ZM125.033 59.888C126.355 61.296 128.424 62 131.241 62H135.657V55.472H131.241V14.64H123.049V53.936C123.049 56.496 123.71 58.48 125.033 59.888ZM142.245 22.576C143.013 23.344 144.25 23.728 145.957 23.728C147.621 23.728 148.837 23.344 149.605 22.576C150.373 21.808 150.757 20.8267 150.757 19.632V18.352C150.757 17.1573 150.373 16.176 149.605 15.408C148.837 14.64 147.621 14.256 145.957 14.256C144.25 14.256 143.013 14.64 142.245 15.408C141.52 16.176 141.157 17.1573 141.157 18.352V19.632C141.157 20.8267 141.52 21.808 142.245 22.576ZM150.053 62V28.592H141.861V62H150.053ZM167.74 28.592H159.548V74.8H167.74V56.432H167.997C168.637 58.352 169.767 59.888 171.389 61.04C173.053 62.192 174.994 62.768 177.212 62.768C181.479 62.768 184.722 61.2533 186.941 58.224C189.202 55.1947 190.333 50.864 190.333 45.232C190.333 39.6427 189.202 35.3547 186.941 32.368C184.722 29.3387 181.479 27.824 177.212 27.824C174.994 27.824 173.053 28.4 171.389 29.552C169.725 30.6613 168.594 32.176 167.997 34.096H167.74V28.592ZM179.773 53.872C178.45 55.28 176.722 55.984 174.589 55.984C172.626 55.984 170.983 55.5147 169.661 54.576C168.38 53.6373 167.74 52.2933 167.74 50.544V39.92C167.74 38.2987 168.38 36.9973 169.661 36.016C170.983 35.0347 172.626 34.544 174.589 34.544C176.722 34.544 178.45 35.2693 179.773 36.72C181.095 38.128 181.757 40.0267 181.757 42.416V48.176C181.757 50.5653 181.095 52.464 179.773 53.872ZM206.115 28.592H197.923V74.8H206.115V56.432H206.372C207.012 58.352 208.142 59.888 209.764 61.04C211.428 62.192 213.369 62.768 215.587 62.768C219.854 62.768 223.097 61.2533 225.316 58.224C227.577 55.1947 228.708 50.864 228.708 45.232C228.708 39.6427 227.577 35.3547 225.316 32.368C223.097 29.3387 219.854 27.824 215.587 27.824C213.369 27.824 211.428 28.4 209.764 29.552C208.1 30.6613 206.969 32.176 206.372 34.096H206.115V28.592ZM218.148 53.872C216.825 55.28 215.097 55.984 212.964 55.984C211.001 55.984 209.358 55.5147 208.036 54.576C206.755 53.6373 206.115 52.2933 206.115 50.544V39.92C206.115 38.2987 206.755 36.9973 208.036 36.016C209.358 35.0347 211.001 34.544 212.964 34.544C215.097 34.544 216.825 35.2693 218.148 36.72C219.47 38.128 220.132 40.0267 220.132 42.416V48.176C220.132 50.5653 219.47 52.464 218.148 53.872ZM243.146 61.552C245.109 62.3627 247.328 62.768 249.803 62.768C252.917 62.768 255.648 62.2347 257.995 61.168C260.384 60.0587 262.261 58.544 263.626 56.624L259.21 51.696C258.187 53.0187 257.013 54.1067 255.691 54.96C254.411 55.8133 252.747 56.24 250.699 56.24C248.01 56.24 245.984 55.5147 244.618 54.064C243.253 52.5707 242.57 50.608 242.57 48.176V47.344H264.779V44.656C264.779 42.352 264.458 40.1973 263.818 38.192C263.221 36.144 262.304 34.352 261.066 32.816C259.829 31.28 258.251 30.064 256.331 29.168C254.411 28.272 252.149 27.824 249.547 27.824C247.115 27.824 244.939 28.2507 243.018 29.104C241.098 29.9147 239.477 31.088 238.154 32.624C236.832 34.1173 235.808 35.9307 235.083 38.064C234.4 40.1973 234.059 42.5867 234.059 45.232C234.059 47.92 234.421 50.352 235.146 52.528C235.872 54.6613 236.896 56.496 238.219 58.032C239.584 59.5253 241.227 60.6987 243.146 61.552ZM244.49 36.144C245.771 34.6933 247.499 33.968 249.674 33.968C251.808 33.968 253.429 34.6933 254.538 36.144C255.691 37.552 256.266 39.408 256.266 41.712V42.288H242.57V41.776C242.57 39.472 243.21 37.5947 244.49 36.144ZM300.722 55.088H300.978V62H308.274V37.68H291.378V44.784H300.146V47.664C300.146 48.944 299.89 50.0533 299.378 50.992C298.866 51.9307 298.183 52.72 297.33 53.36C296.477 54 295.474 54.4907 294.322 54.832C293.17 55.1307 291.933 55.28 290.61 55.28C287.239 55.28 284.551 54.256 282.546 52.208C280.541 50.16 279.538 47.1733 279.538 43.248V36.08C279.538 32.112 280.519 29.1253 282.482 27.12C284.487 25.072 287.154 24.048 290.482 24.048C293.17 24.048 295.303 24.688 296.882 25.968C298.503 27.248 299.719 28.848 300.53 30.768L307.378 26.736C305.757 23.4507 303.538 20.9333 300.722 19.184C297.906 17.4347 294.493 16.56 290.482 16.56C287.495 16.56 284.786 17.072 282.354 18.096C279.922 19.12 277.831 20.6133 276.082 22.576C274.333 24.5387 272.967 26.9707 271.986 29.872C271.047 32.7307 270.578 36.0373 270.578 39.792C270.578 43.5467 271.047 46.8533 271.986 49.712C272.925 52.5707 274.205 54.9813 275.826 56.944C277.49 58.864 279.431 60.3147 281.65 61.296C283.911 62.2773 286.365 62.768 289.01 62.768C292.381 62.768 295.069 62.0427 297.074 60.592C299.122 59.0987 300.338 57.264 300.722 55.088ZM337.836 60.464C338.903 61.488 340.332 62 342.125 62H346.669V55.472H343.341V39.728C343.341 35.888 342.167 32.944 339.82 30.896C337.474 28.848 334.039 27.824 329.517 27.824C326.146 27.824 323.436 28.4213 321.388 29.616C319.341 30.768 317.698 32.304 316.461 34.224L321.324 38.576C322.135 37.424 323.116 36.4427 324.268 35.632C325.463 34.7787 327.021 34.352 328.94 34.352C331.116 34.352 332.695 34.864 333.677 35.888C334.658 36.912 335.148 38.3627 335.148 40.24V42.672H329.453C324.887 42.672 321.367 43.5253 318.892 45.232C316.418 46.896 315.181 49.456 315.181 52.912C315.181 55.8987 316.098 58.288 317.932 60.08C319.767 61.872 322.391 62.768 325.805 62.768C328.322 62.768 330.434 62.2347 332.141 61.168C333.847 60.0587 334.978 58.416 335.533 56.24H335.917C336.173 57.9893 336.812 59.3973 337.836 60.464ZM333.229 55.6C331.948 56.4107 330.391 56.816 328.556 56.816C326.935 56.816 325.677 56.496 324.78 55.856C323.927 55.1733 323.5 54.1493 323.5 52.784V51.696C323.5 48.9653 325.634 47.6 329.901 47.6H335.148V52.016C335.148 53.5947 334.509 54.7893 333.229 55.6ZM382.483 69.424C383.122 68.1013 383.443 66.5653 383.443 64.816C383.443 61.8293 382.504 59.504 380.626 57.84C378.792 56.1333 375.827 55.28 371.73 55.28H362.771C359.869 55.28 358.418 54.448 358.418 52.784C358.418 52.0587 358.653 51.4613 359.122 50.992C359.592 50.48 360.147 50.0747 360.786 49.776C362.237 50.16 363.944 50.352 365.906 50.352C370.472 50.352 373.906 49.328 376.211 47.28C378.557 45.232 379.73 42.5227 379.73 39.152C379.73 37.104 379.304 35.2907 378.451 33.712C377.597 32.1333 376.296 30.8533 374.547 29.872V28.976H381.651V22.704H376.466C373.309 22.704 371.73 24.3253 371.73 27.568V28.656C370.877 28.3573 369.939 28.144 368.914 28.016C367.933 27.888 366.931 27.824 365.906 27.824C361.384 27.824 357.949 28.8693 355.603 30.96C353.256 33.008 352.082 35.7387 352.082 39.152C352.082 41.3707 352.573 43.312 353.555 44.976C354.578 46.64 356.115 47.9413 358.163 48.88V49.136C357.352 49.3067 356.584 49.5627 355.858 49.904C355.133 50.2027 354.472 50.5867 353.875 51.056C353.32 51.5253 352.872 52.1013 352.53 52.784C352.189 53.424 352.018 54.1707 352.018 55.024C352.018 56.3893 352.381 57.584 353.107 58.608C353.875 59.5893 354.941 60.2507 356.306 60.592V61.296C354.429 61.5947 352.957 62.256 351.891 63.28C350.866 64.3467 350.354 65.8187 350.354 67.696C350.354 68.9333 350.632 70.0427 351.186 71.024C351.741 72.0053 352.637 72.816 353.875 73.456C355.155 74.1387 356.776 74.6507 358.738 74.992C360.701 75.376 363.091 75.568 365.906 75.568C369.107 75.568 371.816 75.3333 374.035 74.864C376.253 74.3947 378.066 73.712 379.474 72.816C380.883 71.92 381.885 70.7893 382.483 69.424ZM374.483 63.28C375.336 63.8773 375.763 64.7093 375.763 65.776C375.763 67.184 375.144 68.2293 373.906 68.912C372.712 69.5947 370.771 69.936 368.082 69.936H363.987C361.427 69.936 359.613 69.5733 358.547 68.848C357.48 68.1227 356.947 67.12 356.947 65.84C356.947 64.3893 357.522 63.2373 358.674 62.384H370.066C372.157 62.384 373.629 62.6827 374.483 63.28ZM371.922 39.664C371.922 43.0773 369.917 44.784 365.906 44.784C361.896 44.784 359.891 43.0773 359.891 39.664V38.576C359.891 35.1627 361.896 33.456 365.906 33.456C369.917 33.456 371.922 35.1627 371.922 38.576V39.664ZM388.173 28.592V62H396.366V39.92C396.366 39.024 396.557 38.256 396.941 37.616C397.326 36.9333 397.816 36.3787 398.414 35.952C399.053 35.4827 399.758 35.1413 400.526 34.928C401.336 34.672 402.168 34.544 403.022 34.544C404.984 34.544 406.392 35.1413 407.246 36.336C408.099 37.5307 408.526 39.3227 408.526 41.712V62H416.717V40.88C416.717 36.6987 415.8 33.4773 413.966 31.216C412.131 28.9547 409.486 27.824 406.03 27.824C403.427 27.824 401.379 28.4427 399.885 29.68C398.435 30.8747 397.368 32.368 396.685 34.16H396.366V28.592H388.173ZM435.271 22.448L440.198 24.816L448.263 13.872L441.35 10.48L435.271 22.448ZM432.647 61.552C434.609 62.3627 436.828 62.768 439.302 62.768C442.417 62.768 445.148 62.2347 447.495 61.168C449.884 60.0587 451.761 58.544 453.126 56.624L448.711 51.696C447.686 53.0187 446.513 54.1067 445.19 54.96C443.91 55.8133 442.246 56.24 440.198 56.24C437.51 56.24 435.484 55.5147 434.118 54.064C432.753 52.5707 432.07 50.608 432.07 48.176V47.344H454.279V44.656C454.279 42.352 453.958 40.1973 453.319 38.192C452.721 36.144 451.804 34.352 450.566 32.816C449.329 31.28 447.75 30.064 445.831 29.168C443.91 28.272 441.649 27.824 439.047 27.824C436.615 27.824 434.439 28.2507 432.518 29.104C430.599 29.9147 428.977 31.088 427.655 32.624C426.332 34.1173 425.308 35.9307 424.582 38.064C423.9 40.1973 423.559 42.5867 423.559 45.232C423.559 47.92 423.921 50.352 424.647 52.528C425.372 54.6613 426.396 56.496 427.719 58.032C429.084 59.5253 430.727 60.6987 432.647 61.552ZM433.991 36.144C435.271 34.6933 436.999 33.968 439.174 33.968C441.308 33.968 442.929 34.6933 444.039 36.144C445.19 37.552 445.767 39.408 445.767 41.712V42.288H432.07V41.776C432.07 39.472 432.711 37.5947 433.991 36.144Z" fill="#F5F5F5"/>
</svg>
