<svg width="114" height="80" viewBox="0 0 114 80" fill="none" xmlns="http://www.w3.org/2000/svg">
<path fill-rule="evenodd" clip-rule="evenodd" d="M31 4.60158e-06V8H8V72H31V80H0V0L31 4.60158e-06ZM83 4.60158e-06V8H106V72H83V80H114V0L83 4.60158e-06ZM19.248 17.328V62H27.696V44.976H39.344C41.392 44.976 43.2267 44.656 44.848 44.016C46.512 43.3333 47.92 42.3947 49.072 41.2C50.224 39.9627 51.0987 38.512 51.696 36.848C52.2933 35.1413 52.592 33.2427 52.592 31.152C52.592 29.104 52.2933 27.2267 51.696 25.52C51.0987 23.8133 50.224 22.3627 49.072 21.168C47.92 19.9307 46.512 18.992 44.848 18.352C43.2267 17.6693 41.392 17.328 39.344 17.328H19.248ZM38.576 37.68H27.696V24.688H38.576C40.1973 24.688 41.4773 25.1147 42.416 25.968C43.3547 26.8213 43.824 28.0587 43.824 29.68V32.624C43.824 34.2453 43.3547 35.504 42.416 36.4C41.4773 37.2533 40.1973 37.68 38.576 37.68ZM88.472 55.088H88.728V62H96.024V37.68H79.128V44.784H87.896V47.664C87.896 48.944 87.64 50.0533 87.128 50.992C86.616 51.9307 85.9333 52.72 85.08 53.36C84.2267 54 83.224 54.4907 82.072 54.832C80.92 55.1307 79.6827 55.28 78.36 55.28C74.9893 55.28 72.3013 54.256 70.296 52.208C68.2907 50.16 67.288 47.1733 67.288 43.248V36.08C67.288 32.112 68.2693 29.1253 70.232 27.12C72.2373 25.072 74.904 24.048 78.232 24.048C80.92 24.048 83.0533 24.688 84.632 25.968C86.2533 27.248 87.4693 28.848 88.28 30.768L95.128 26.736C93.5067 23.4507 91.288 20.9333 88.472 19.184C85.656 17.4347 82.2427 16.56 78.232 16.56C75.2453 16.56 72.536 17.072 70.104 18.096C67.672 19.12 65.5813 20.6133 63.832 22.576C62.0827 24.5387 60.7173 26.9707 59.736 29.872C58.7973 32.7307 58.328 36.0373 58.328 39.792C58.328 43.5467 58.7973 46.8533 59.736 49.712C60.6747 52.5707 61.9547 54.9813 63.576 56.944C65.24 58.864 67.1813 60.3147 69.4 61.296C71.6613 62.2773 74.1147 62.768 76.76 62.768C80.1307 62.768 82.8187 62.0427 84.824 60.592C86.872 59.0987 88.088 57.264 88.472 55.088Z" fill="#F5F5F5"/>
</svg>
