<svg width="36" height="36" viewBox="0 0 36 36" fill="none" xmlns="http://www.w3.org/2000/svg">
<path d="M31.5 36H4.5C2.01465 36 0 33.9853 0 31.5V4.5C0 2.01474 2.01465 0 4.5 0H31.5C33.9853 0 36 2.01474 36 4.5V31.5C36 33.9853 33.9853 36 31.5 36Z" fill="#73808D"/>
<path d="M13.8261 27.143C22.317 27.143 26.9602 20.1085 26.9602 14.0088C26.9602 13.8089 26.9562 13.6099 26.9471 13.412C27.8483 12.7605 28.6319 11.9475 29.25 11.0218C28.4228 11.3892 27.5327 11.6369 26.5991 11.7486C27.5521 11.1771 28.2838 10.2729 28.6288 9.19501C27.7366 9.72376 26.7493 10.1083 25.6977 10.3154C24.8554 9.41821 23.6557 8.85698 22.3282 8.85698C19.7786 8.85698 17.7112 10.9244 17.7112 13.4729C17.7112 13.8352 17.7518 14.1874 17.831 14.5254C13.9946 14.3326 10.5926 12.4956 8.316 9.70244C7.91919 10.3845 7.69077 11.1771 7.69077 12.0226C7.69077 13.6241 8.50581 15.0379 9.74502 15.8651C8.98785 15.8418 8.2764 15.6337 7.65432 15.2876C7.65324 15.3068 7.65324 15.3262 7.65324 15.3464C7.65324 17.5823 9.24462 19.4488 11.3567 19.8721C10.969 19.9776 10.561 20.0345 10.1398 20.0345C9.84249 20.0345 9.55323 20.005 9.27207 19.9512C9.85968 21.7852 11.5638 23.1198 13.5845 23.1574C12.0043 24.3957 10.0139 25.1335 7.85115 25.1335C7.47864 25.1335 7.11126 25.1121 6.75 25.0695C8.793 26.3788 11.2188 27.143 13.8261 27.143Z" fill="white"/>
</svg>
